<?xml version="1.0" encoding="UTF-8" standalone="no"?>
<svg
   xmlns:dc="http://purl.org/dc/elements/1.1/"
   xmlns:cc="http://creativecommons.org/ns#"
   xmlns:rdf="http://www.w3.org/1999/02/22-rdf-syntax-ns#"
   xmlns:svg="http://www.w3.org/2000/svg"
   xmlns="http://www.w3.org/2000/svg"
   xml:space="preserve"
   viewBox="0 0 360 360"
   height="360px"
   width="360px"
   y="0px"
   x="0px"
   id="svg8765"
   version="1.1"><metadata
     id="metadata12"><rdf:RDF><cc:Work
         rdf:about=""><dc:format>image/svg+xml</dc:format><dc:type
           rdf:resource="http://purl.org/dc/dcmitype/StillImage" /><dc:title></dc:title></cc:Work></rdf:RDF></metadata><defs
     id="defs10" /><path
     fill="#4d4d4d"
     d="M247.494,264.385H188v-3.457h59.494V264.385"
     id="path3537-7" /><path
     fill="#4d4d4d"
     d="M247.494,319.393H188v-3.457h59.494V319.393"
     id="path3531-1" /><path
     fill="#4d4d4d"
     d="M247.494,291.744H188v-3.456h59.494V291.744"
     id="path3016-2-0-41" /><path
     fill="#4d4d4d"
     d="M247.494,346.752H188v-3.456h59.494V346.752"
     id="path3545-9" /><path
     fill="#ffffff"
     d="M217.243,330.624c6.624,0,12.239,1.296,16.848,3.888  c4.607,2.496,6.912,6.096,6.912,10.801c0,4.512-2.256,8.016-6.769,10.512c-4.512,2.4-9.936,3.6-16.271,3.6  c-6.624,0-12.192-1.248-16.704-3.744s-6.768-6.191-6.768-11.088c0-3.455,1.392-6.287,4.176-8.496c2.88-2.207,5.903-3.648,9.071-4.32  C210.906,331.008,214.075,330.624,217.243,330.624 M209.467,340.848c0,4.032,0.912,7.584,2.736,10.656  c1.823,3.072,4.176,4.607,7.056,4.607c4.416,0,6.624-2.399,6.624-7.199c0-3.84-0.912-7.248-2.736-10.225  c-1.728-3.071-4.128-4.607-7.2-4.607C211.627,334.08,209.467,336.336,209.467,340.848"
     id="path3002" /></svg>
