<?xml version="1.0" encoding="UTF-8" standalone="no"?>
<svg
   xmlns:dc="http://purl.org/dc/elements/1.1/"
   xmlns:cc="http://creativecommons.org/ns#"
   xmlns:rdf="http://www.w3.org/1999/02/22-rdf-syntax-ns#"
   xmlns:svg="http://www.w3.org/2000/svg"
   xmlns="http://www.w3.org/2000/svg"
   xml:space="preserve"
   viewBox="0 0 360 360"
   height="360px"
   width="360px"
   y="0px"
   x="0px"
   id="svg8765"
   version="1.1"><metadata
     id="metadata10"><rdf:RDF><cc:Work
         rdf:about=""><dc:format>image/svg+xml</dc:format><dc:type
           rdf:resource="http://purl.org/dc/dcmitype/StillImage" /><dc:title></dc:title></cc:Work></rdf:RDF></metadata><defs
     id="defs8" /><path
     fill="#4d4d4d"
     d="M247.49,264.38H188v-3.456h59.494v3.456"
     id="path3537-7" /><path
     fill="#4d4d4d"
     d="M247.49,291.74H188v-3.456h59.494v3.456"
     id="path3016-2-0-41" /><path
     fill="#ffffff"
     d="M217.24,289.439c6.622,0,12.237,1.297,16.848,3.89c4.605,2.496,6.912,6.097,6.912,10.8  c0,4.514-2.256,8.018-6.771,10.514c-4.512,2.398-9.936,3.601-16.271,3.601c-6.624,0-12.192-1.248-16.704-3.744  s-6.77-6.19-6.77-11.088c0-3.456,1.394-6.288,4.178-8.496c2.88-2.208,5.901-3.647,9.069-4.319  C210.903,289.824,214.072,289.439,217.24,289.439 M209.464,299.664c0,4.031,0.912,7.584,2.736,10.656  c1.821,3.072,4.176,4.607,7.056,4.607c4.416,0,6.624-2.4,6.624-7.199c0-3.84-0.912-7.248-2.736-10.227  c-1.728-3.07-4.128-4.605-7.2-4.605C211.624,292.896,209.464,295.152,209.464,299.664"
     id="path3002-92" /></svg>
