<?xml version="1.0" encoding="utf-8"?>
<!-- Generator: Adobe Illustrator 13.0.0, SVG Export Plug-In . SVG Version: 6.00 Build 14948)  -->
<!DOCTYPE svg PUBLIC "-//W3C//DTD SVG 1.1 Basic//EN" "http://www.w3.org/Graphics/SVG/1.1/DTD/svg11-basic.dtd">
<svg version="1.1" baseProfile="basic"
	 id="svg8765" xmlns:dc="http://purl.org/dc/elements/1.1/" xmlns:cc="http://creativecommons.org/ns#" xmlns:svg="http://www.w3.org/2000/svg" xmlns:rdf="http://www.w3.org/1999/02/22-rdf-syntax-ns#" xmlns:inkscape="http://www.inkscape.org/namespaces/inkscape"
	 xmlns="http://www.w3.org/2000/svg" xmlns:xlink="http://www.w3.org/1999/xlink" x="0px" y="0px" width="360px" height="360px"
	 viewBox="0 0 360 360" xml:space="preserve">
<path id="path2992-4" inkscape:connector-curvature="0" d="M121.467,129.073c5.304-0.114,8.698,7.04,5.038,11.384
	c-3.275,3.887-10.324,3.36-11.52-2.188C113.984,133.613,116.925,129.171,121.467,129.073L121.467,129.073z M116.628,162.724
	c3.139-3.444,8.639-2.25,10.757,1.878c2.597,5.062-2.181,11.036-7.491,10.095C114.534,173.747,113.312,166.363,116.628,162.724z
	 M77.923,120.415c17.91,0.19,28.635,14.357,29.675,27.623c1.041,13.265-4.046,23.189-9.874,30.865
	c-5.827,7.676-10.122,11.346-17.47,17.166c-7.348,5.82-23.542,15.501-26.491,16.869c-2.948,1.367-6.137,3.248-7.375,3.935
	c0,0-1.006-1.796-1.388-2.415c1.914-1.342,5.04-3.389,7.186-4.976c7.715-5.709,13.295-9.925,19.976-17.213
	c6.682-7.288,15.636-15.992,18.536-27.327c2.681-10.475,3.875-20.61-1.684-31.409c-2.468-4.794-8.994-9.317-15.396-9.518
	c-6.011-0.188-14.139,1.906-17.097,8.539c-2.238,5.02,0.766,8.208,4.857,5.83c6.151-2.755,13.314,3.801,12.053,10.703
	c-1.28,7.005-8.806,10.283-15.02,8.859c-6.263-1.435-10.925-7.589-10.266-14.36C49.05,134.316,54.977,120.171,77.923,120.415
	L77.923,120.415z"/>
</svg>
