<?xml version="1.0" encoding="utf-8"?>
<!-- Generator: Adobe Illustrator 13.0.0, SVG Export Plug-In . SVG Version: 6.00 Build 14948)  -->
<!DOCTYPE svg PUBLIC "-//W3C//DTD SVG 1.1 Basic//EN" "http://www.w3.org/Graphics/SVG/1.1/DTD/svg11-basic.dtd">
<svg version="1.1" baseProfile="basic"
	 id="svg8765" xmlns:dc="http://purl.org/dc/elements/1.1/" xmlns:cc="http://creativecommons.org/ns#" xmlns:svg="http://www.w3.org/2000/svg" xmlns:rdf="http://www.w3.org/1999/02/22-rdf-syntax-ns#" xmlns:inkscape="http://www.inkscape.org/namespaces/inkscape"
	 xmlns="http://www.w3.org/2000/svg" xmlns:xlink="http://www.w3.org/1999/xlink" x="0px" y="0px" width="360px" height="360px"
	 viewBox="0 0 360 360" xml:space="preserve">
<path id="path2994-2" inkscape:connector-curvature="0" d="M90.216,229.274c2.88,10.079,4.32,18.336,4.32,24.769
	c0,5.088-1.776,9.264-5.328,12.527c-3.553,3.264-7.872,4.896-12.96,4.896c-4.801,0-8.977-1.44-12.528-4.32
	c-3.552-2.784-5.328-6.192-5.328-10.225c0-2.879,0.96-5.615,2.88-8.207c2.017-2.496,4.416-3.744,7.2-3.744
	c2.88,0,5.184,1.008,6.912,3.023c1.824,2.112,2.736,4.512,2.736,7.2c0,5.952-3.36,8.928-10.08,8.928
	c1.728,2.688,4.512,4.032,8.352,4.032c1.44,0,2.88-0.24,4.32-0.721c1.536-0.383,3.12-1.104,4.752-2.159s2.928-2.736,3.888-5.04
	c1.056-2.208,1.584-4.896,1.584-8.064c0-2.016-1.344-9.264-4.032-21.744c-2.111,0.576-4.752,0.865-7.92,0.865
	c-9.312,0-17.328-3.457-24.048-10.369C48.312,214.01,45,205.754,45,196.154c0-3.359,0.527-6.768,1.584-10.225
	c1.151-3.455,2.399-6.479,3.744-9.071c1.439-2.688,3.504-5.664,6.191-8.928c2.784-3.36,5.088-6,6.912-7.92
	c1.92-2.016,4.56-4.704,7.92-8.064c-2.208-7.872-3.312-15.072-3.312-21.6c0-8.64,1.584-15.84,4.752-21.6
	c3.168-5.855,6.336-8.784,9.504-8.784c0.96,0,2.016,0.624,3.168,1.872c1.248,1.248,2.448,2.976,3.6,5.184
	c1.152,2.208,2.112,5.136,2.88,8.784c0.864,3.552,1.296,7.392,1.296,11.52c0,15.264-5.424,27.888-16.271,37.872l3.744,16.991
	c1.536-0.287,2.928-0.432,4.176-0.432c5.855,0,10.8,2.4,14.832,7.2c4.032,4.704,6.048,10.464,6.048,17.28
	C105.768,217.563,100.584,225.242,90.216,229.274 M89.064,122.138c0-5.28-1.536-7.92-4.607-7.92c-3.456,0-6.385,2.544-8.784,7.632
	c-2.4,5.088-3.601,10.752-3.601,16.992c0,4.032,0.624,7.536,1.872,10.512c3.648-2.208,7.057-6.144,10.225-11.808
	C87.432,131.787,89.064,126.65,89.064,122.138 M99.432,211.131c0-5.281-1.536-9.504-4.607-12.672
	c-3.072-3.168-7.057-4.752-11.952-4.752l6.479,32.543C96.072,223.467,99.432,218.426,99.432,211.131 M86.328,227.114l-6.624-33.12
	c-2.593,0.576-4.992,2.16-7.2,4.752c-2.112,2.592-3.168,5.28-3.168,8.064c0,1.439,0.288,2.88,0.864,4.32
	c0.575,1.344,1.247,2.496,2.016,3.455c0.864,0.961,1.728,1.824,2.592,2.592c0.864,0.769,1.584,1.345,2.16,1.729
	c0.576,0.288,0.864,0.432,0.864,0.432l-1.152,0.721c-3.168-0.864-6.192-2.784-9.072-5.76c-2.783-2.977-4.176-6.721-4.176-11.232
	s1.393-8.641,4.176-12.385c2.88-3.84,6.048-6.383,9.504-7.631l-2.592-15.409c-15.072,12.576-22.607,24.72-22.607,36.432
	c0,7.008,2.64,12.864,7.92,17.568c5.279,4.703,11.279,7.056,18,7.056C79.464,228.698,82.296,228.17,86.328,227.114"/>
</svg>
