<?xml version="1.0" encoding="utf-8"?>
<!-- Generator: Adobe Illustrator 21.0.0, SVG Export Plug-In . SVG Version: 6.00 Build 0)  -->
<svg version="1.1" baseProfile="tiny"
	 id="dark_alto_clef" xmlns:cc="http://creativecommons.org/ns#" xmlns:dc="http://purl.org/dc/elements/1.1/" xmlns:rdf="http://www.w3.org/1999/02/22-rdf-syntax-ns#" xmlns:svg="http://www.w3.org/2000/svg"
	 xmlns="http://www.w3.org/2000/svg" xmlns:xlink="http://www.w3.org/1999/xlink" x="0px" y="0px" viewBox="0 0 360 360"
   width="360px"
   height="360px"
	 overflow="scroll" xml:space="preserve">
<path id="path2990-0-0" d="M98.6,215.9c6.5,0,11.8,2,15.7,6c3.9,4,5.9,9.4,5.9,16c0,7.2-2.4,13.3-7.1,18.3
	c-4.7,4.9-10.5,7.3-17.3,7.3c-5.9,0-10.8-1.3-14.7-3.9c-3.9-2.7-5.9-6.4-5.9-11.1c0-1.9,0.8-3.7,2.4-5.3c1.6-1.7,3.5-2.6,5.6-2.6
	c2.3,0,4.2,0.8,5.8,2.4c1.6,1.5,2.4,3.4,2.4,5.5c0,1.4-0.8,3.1-2.3,5c-1.4,1.8-2.2,2.9-2.2,3.2c0,1.7,1.7,2.6,5,2.6
	c8.4,0,12.5-7.2,12.5-21.5c0-3.8-0.2-6.9-0.6-9.2c-0.4-2.4-1.1-4.1-2-5c-1-1-1.9-1.5-2.7-1.7c-0.9-0.3-2.2-0.4-3.9-0.4
	c-2.8,0-5.1,1.1-7.1,3.3c-1.8,2.2-3.6,6-5.5,11.5c-2.3-12.9-6.6-22-12.8-27.4v54.9h-5.5V150.3h5.5v55c6.2-5.4,10.5-14.4,12.8-27.2
	c2.4,9.8,6.6,14.7,12.5,14.7c1.7,0,3-0.1,3.9-0.3c0.9-0.2,1.8-0.8,2.7-1.7c1-1,1.6-2.6,2-4.9c0.4-2.3,0.6-5.4,0.6-9.4
	c0-14.4-4.2-21.6-12.5-21.6c-3.4,0-5,0.8-5,2.4c0,0.4,0.7,1.5,2.2,3.5c1.5,1.8,2.3,3.5,2.3,4.9c0,2.1-0.8,4-2.4,5.6
	c-1.5,1.5-3.5,2.3-5.8,2.3c-2.1,0-4-0.8-5.6-2.4c-1.6-1.7-2.4-3.6-2.4-5.5c0-4.7,2-8.4,5.9-10.9c3.9-2.7,8.8-4,14.7-4
	c6.8,0,12.6,2.5,17.3,7.5c4.7,4.9,7.1,11,7.1,18.3c0,6.3-2,11.6-5.9,15.7c-3.8,4-9.1,6-15.7,6c-3.4,0-6.7-0.6-10.1-1.9l-4.8,10.7
	l4.8,10.8C92,216.5,95.4,215.9,98.6,215.9 M59.3,263.8H45V150.3h14.3L59.3,263.8"/>
</svg>
