<?xml version="1.0" encoding="utf-8"?>
<!-- Generator: Adobe Illustrator 13.0.0, SVG Export Plug-In . SVG Version: 6.00 Build 14948)  -->
<!DOCTYPE svg PUBLIC "-//W3C//DTD SVG 1.1 Basic//EN" "http://www.w3.org/Graphics/SVG/1.1/DTD/svg11-basic.dtd">
<svg version="1.1" baseProfile="basic"
	 id="svg8765" xmlns:dc="http://purl.org/dc/elements/1.1/" xmlns:cc="http://creativecommons.org/ns#" xmlns:svg="http://www.w3.org/2000/svg" xmlns:rdf="http://www.w3.org/1999/02/22-rdf-syntax-ns#" xmlns:inkscape="http://www.inkscape.org/namespaces/inkscape"
	 xmlns="http://www.w3.org/2000/svg" xmlns:xlink="http://www.w3.org/1999/xlink" x="0px" y="0px" width="360px" height="360px"
	 viewBox="0 0 360 360" xml:space="preserve">
<path id="path3517-63" inkscape:connector-curvature="0" fill="#4D4D4D" d="M247.494,44.352H188v-3.456h59.494V44.352"/>
<path id="path3511-4" inkscape:connector-curvature="0" fill="#4D4D4D" d="M247.494,99.36H188v-3.456h59.494V99.36"/>
<path id="path3016-2-9-3" inkscape:connector-curvature="0" fill="#4D4D4D" d="M247.494,71.712H188v-3.456h59.494V71.712"/>
<path id="path3002-66" inkscape:connector-curvature="0" d="M217.243,28.224c6.624,0,12.239,1.296,16.848,3.888
	c4.608,2.496,6.912,6.096,6.912,10.8c0,4.512-2.256,8.016-6.769,10.512c-4.512,2.4-9.936,3.6-16.271,3.6
	c-6.624,0-12.192-1.248-16.704-3.744c-4.512-2.496-6.769-6.192-6.769-11.088c0-3.456,1.393-6.288,4.177-8.496
	c2.88-2.208,5.903-3.648,9.071-4.32C210.907,28.608,214.074,28.224,217.243,28.224 M209.467,38.448
	c0,4.032,0.912,7.584,2.736,10.656c1.823,3.072,4.176,4.608,7.056,4.608c4.416,0,6.624-2.4,6.624-7.2
	c0-3.84-0.912-7.248-2.736-10.224c-1.728-3.072-4.128-4.608-7.2-4.608C211.627,31.68,209.467,33.936,209.467,38.448"/>
</svg>
