<?xml version="1.0" encoding="utf-8"?>
<!-- Generator: Adobe Illustrator 13.0.0, SVG Export Plug-In . SVG Version: 6.00 Build 14948)  -->
<!DOCTYPE svg PUBLIC "-//W3C//DTD SVG 1.1 Basic//EN" "http://www.w3.org/Graphics/SVG/1.1/DTD/svg11-basic.dtd">
<svg version="1.1" baseProfile="basic"
	 id="svg8765" xmlns:dc="http://purl.org/dc/elements/1.1/" xmlns:cc="http://creativecommons.org/ns#" xmlns:svg="http://www.w3.org/2000/svg" xmlns:rdf="http://www.w3.org/1999/02/22-rdf-syntax-ns#" xmlns:inkscape="http://www.inkscape.org/namespaces/inkscape"
	 xmlns="http://www.w3.org/2000/svg" xmlns:xlink="http://www.w3.org/1999/xlink" x="0px" y="0px" width="360px" height="360px"
	 viewBox="0 0 360 360" xml:space="preserve">
<path id="path3002-6" inkscape:connector-curvature="0" d="M217.243,96.912c6.624,0,12.239,1.296,16.848,3.888
	c4.607,2.496,6.912,6.096,6.912,10.8c0,4.512-2.257,8.016-6.769,10.512c-4.512,2.4-9.936,3.6-16.271,3.6
	c-6.624,0-12.192-1.248-16.704-3.744c-4.512-2.496-6.768-6.192-6.768-11.088c0-3.456,1.392-6.288,4.176-8.496
	c2.88-2.208,5.903-3.648,9.071-4.32C210.906,97.296,214.074,96.912,217.243,96.912 M209.467,107.136
	c0,4.032,0.912,7.584,2.735,10.656c1.824,3.072,4.177,4.608,7.057,4.608c4.416,0,6.624-2.4,6.624-7.2
	c0-3.84-0.912-7.248-2.736-10.224c-1.728-3.072-4.128-4.608-7.2-4.608C211.627,100.368,209.467,102.624,209.467,107.136"/>
</svg>
