<?xml version="1.0" encoding="UTF-8" standalone="no"?>
<!-- Created with Inkscape (http://www.inkscape.org/) -->

<svg
   xmlns:dc="http://purl.org/dc/elements/1.1/"
   xmlns:cc="http://creativecommons.org/ns#"
   xmlns:rdf="http://www.w3.org/1999/02/22-rdf-syntax-ns#"
   xmlns:svg="http://www.w3.org/2000/svg"
   xmlns="http://www.w3.org/2000/svg"
   xmlns:sodipodi="http://sodipodi.sourceforge.net/DTD/sodipodi-0.dtd"
   xmlns:inkscape="http://www.inkscape.org/namespaces/inkscape"
   width="21.990999mm"
   height="45.414001mm"
   viewBox="0 0 21.990999 45.414003"
   version="1.1"
   id="svg8"
   inkscape:version="0.92.1 r15371"
   sodipodi:docname="light_g_clef.svg">
  <defs
     id="defs2" />
  <sodipodi:namedview
     id="base"
     pagecolor="#ffffff"
     bordercolor="#666666"
     borderopacity="1.0"
     inkscape:pageopacity="0.0"
     inkscape:pageshadow="2"
     inkscape:zoom="1.979899"
     inkscape:cx="-84.285714"
     inkscape:cy="160"
     inkscape:document-units="mm"
     inkscape:current-layer="layer1"
     showgrid="false"
     inkscape:window-width="1855"
     inkscape:window-height="1056"
     inkscape:window-x="65"
     inkscape:window-y="24"
     inkscape:window-maximized="1" />
  <metadata
     id="metadata5">
    <rdf:RDF>
      <cc:Work
         rdf:about="">
        <dc:format>image/svg+xml</dc:format>
        <dc:type
           rdf:resource="http://purl.org/dc/dcmitype/StillImage" />
        <dc:title></dc:title>
      </cc:Work>
    </rdf:RDF>
  </metadata>
  <g
     inkscape:label="Layer 1"
     inkscape:groupmode="layer"
     id="layer1"
     transform="translate(0,-251.586)">
    <path
       d="m 14.9198,285.79998 c 0.762,2.66673 1.143,4.8514 1.143,6.55346 0,1.3462 -0.4699,2.4511 -1.4097,3.31444 -0.940065,0.8636 -2.0828,1.2954 -3.429,1.2954 -1.2702655,0 -2.3751655,-0.381 -3.3147005,-1.143 -0.9398,-0.7366 -1.4097,-1.6383 -1.4097,-2.70537 0,-0.76173 0.254,-1.48563 0.762,-2.17143 0.533665,-0.6604 1.1684,-0.9906 1.905,-0.9906 0.762,0 1.3716005,0.2667 1.8288005,0.79983 0.4826,0.5588 0.7239,1.1938 0.7239,1.905 0,1.5748 -0.889,2.3622 -2.6670005,2.3622 0.4572,0.7112 1.1938005,1.0668 2.2098005,1.0668 0.381,0 0.762,-0.0635 1.143,-0.19076 0.4064,-0.10134 0.8255,-0.2921 1.2573,-0.57124 0.4318,-0.27913 0.7747,-0.7239 1.0287,-1.3335 0.2794,-0.5842 0.4191,-1.2954 0.4191,-2.1336 0,-0.5334 -0.3556,-2.4511 -1.0668,-5.7531 -0.558535,0.1524 -1.2573,0.22887 -2.0955,0.22887 -2.4638005,0 -4.5847005,-0.91467 -6.3627005,-2.74347 -1.7526,-1.82853 -2.6289,-4.01293 -2.6289,-6.55293 0,-0.88874 0.139435,-1.7907 0.4191,-2.70537 0.304535,-0.91413 0.634735,-1.71423 0.9906,-2.40003 0.380735,-0.7112 0.9271,-1.4986 1.638035,-2.3622 0.7366,-0.889 1.3462,-1.5875 1.8288,-2.0955 0.508,-0.5334 1.2065,-1.2446 2.0955,-2.1336 -0.5842,-2.0828 -0.8763,-3.9878 -0.8763,-5.715 0,-2.286 0.4191,-4.191 1.2573005,-5.715 0.8382,-1.54914 1.6764,-2.3241 2.5146,-2.3241 0.254,0 0.5334,0.1651 0.8382,0.4953 0.3302,0.3302 0.6477,0.7874 0.9525,1.3716 0.3048,0.5842 0.5588,1.3589 0.762,2.3241 0.2286,0.9398 0.3429,1.9558 0.3429,3.048 0,4.0386 -1.4351,7.3787 -4.305035,10.0203 l 0.9906,4.49553 c 0.4064,-0.0759 0.7747,-0.1143 1.1049,-0.1143 1.549135,0 2.8575,0.635 3.9243,1.905 1.0668,1.2446 1.6002,2.7686 1.6002,4.572 0,2.99773 -1.3716,5.02947 -4.1148,6.09627 m -0.3048,-28.3464 c 0,-1.397 -0.4064,-2.0955 -1.218935,-2.0955 -0.9144,0 -1.689365,0.6731 -2.3241,2.0193 -0.635,1.3462 -0.952765,2.8448 -0.952765,4.4958 0,1.0668 0.1651,1.9939 0.4953,2.7813 0.9652,-0.5842 1.867165,-1.6256 2.705365,-3.1242 0.863335,-1.52374 1.295135,-2.8829 1.295135,-4.0767 m 2.7432,23.54606 c 0,-1.39726 -0.4064,-2.5146 -1.218935,-3.3528 -0.8128,-0.8382 -1.867165,-1.2573 -3.1623,-1.2573 l 1.714235,8.61034 c 1.778,-0.73634 2.667,-2.0701 2.667,-4.00024 m -3.4671,4.22884 -1.7526,-8.763 c -0.686065,0.1524 -1.3208,0.5715 -1.905,1.2573 -0.5588005,0.6858 -0.8382005,1.397 -0.8382005,2.1336 0,0.38073 0.0762,0.762 0.2286,1.143 0.152135,0.3556 0.329935,0.6604 0.5334005,0.91413 0.2286,0.25427 0.4572,0.4826 0.6858,0.6858 0.2286,0.20347 0.4191,0.35587 0.5715,0.45747 0.1524,0.0762 0.2286,0.1143 0.2286,0.1143 l -0.3048,0.19076 c -0.8382,-0.2286 -1.6383005,-0.7366 -2.4003005,-1.524 -0.736335,-0.78766 -1.1049,-1.77826 -1.1049,-2.9718 0,-1.19353 0.368565,-2.28626 1.1049,-3.27686 0.762,-1.016 1.6002005,-1.68884 2.5146005,-2.01904 l -0.6858,-4.07696 c -3.9878005,3.3274 -5.9814355,6.5405 -5.9814355,9.6393 0,1.8542 0.6985,3.4036 2.0955,4.6482 1.396735,1.24433 2.984235,1.8669 4.7625005,1.8669 0.431535,0 1.180835,-0.1397 2.247635,-0.4191"
       inkscape:connector-curvature="0"
       id="path2994-2"
       style="fill:#000000;stroke-width:0.26458332" />
  </g>
</svg>
