<?xml version="1.0" encoding="UTF-8" standalone="no"?>
<!-- Created with Inkscape (http://www.inkscape.org/) -->

<svg
   xmlns:dc="http://purl.org/dc/elements/1.1/"
   xmlns:cc="http://creativecommons.org/ns#"
   xmlns:rdf="http://www.w3.org/1999/02/22-rdf-syntax-ns#"
   xmlns:svg="http://www.w3.org/2000/svg"
   xmlns="http://www.w3.org/2000/svg"
   xmlns:sodipodi="http://sodipodi.sourceforge.net/DTD/sodipodi-0.dtd"
   xmlns:inkscape="http://www.inkscape.org/namespaces/inkscape"
   width="21.990999mm"
   height="45.414001mm"
   viewBox="0 0 21.990999 45.414003"
   version="1.1"
   id="svg8"
   inkscape:version="0.92.1 r15371"
   sodipodi:docname="light_c_clef.svg">
  <defs
     id="defs2" />
  <sodipodi:namedview
     id="base"
     pagecolor="#ffffff"
     bordercolor="#666666"
     borderopacity="1.0"
     inkscape:pageopacity="0.0"
     inkscape:pageshadow="2"
     inkscape:zoom="1.979899"
     inkscape:cx="-169.89614"
     inkscape:cy="160"
     inkscape:document-units="mm"
     inkscape:current-layer="layer1"
     showgrid="false"
     inkscape:window-width="1855"
     inkscape:window-height="1056"
     inkscape:window-x="65"
     inkscape:window-y="24"
     inkscape:window-maximized="1" />
  <metadata
     id="metadata5">
    <rdf:RDF>
      <cc:Work
         rdf:about="">
        <dc:format>image/svg+xml</dc:format>
        <dc:type
           rdf:resource="http://purl.org/dc/dcmitype/StillImage" />
        <dc:title></dc:title>
      </cc:Work>
    </rdf:RDF>
  </metadata>
  <g
     inkscape:label="Layer 1"
     inkscape:groupmode="layer"
     id="layer1"
     transform="translate(0,-251.586)">
    <path
       d="m 15.2246,282.06756 c 1.7272,0 3.111765,0.5334 4.1529,1.6002 1.041665,1.0668 1.5621,2.4765 1.5621,4.22884 0,1.90526 -0.622565,3.51816 -1.867165,4.83896 -1.244335,1.2954 -2.7686,1.9431 -4.571735,1.9431 -1.5494,0 -2.8448,-0.3429 -3.8862,-1.02896 -1.0414005,-0.7112 -1.5618355,-1.68884 -1.5618355,-2.9337 0,-0.508 0.215635,-0.97764 0.6474346,-1.4097 0.4317999,-0.4572 0.9271009,-0.6858 1.4859009,-0.6858 0.6096,0 1.1176,0.2159 1.524,0.6477 0.4318,0.4064 0.6477,0.889 0.6477,1.4478 0,0.381 -0.2032,0.82576 -0.6096,1.33376 -0.381,0.4826 -0.5715,0.76174 -0.5715,0.8382 0,0.4572 0.4445,0.6858 1.3335,0.6858 2.2098,0 3.3147,-1.8923 3.3147,-5.67716 0,-1.01574 -0.0508,-1.82854 -0.1524,-2.43814 -0.101865,-0.635 -0.279665,-1.0795 -0.533665,-1.3335 -0.254,-0.254 -0.4953,-0.4064 -0.723635,-0.4572 -0.2286,-0.0762 -0.5715,-0.1143 -1.028965,-0.1143 -0.736335,0 -1.3589,0.2921 -1.8669,0.87657 -0.4826,0.5842 -0.9652,1.6002 -1.4478,3.04773 -0.609864,-3.40333 -1.7399005,-5.81633 -3.3909005,-7.23873 v 14.5161 h -1.4478 v -30.02307 h 1.4478 v 14.5542 c 1.651,-1.4224 2.7813005,-3.8227 3.3909005,-7.2009 0.634736,2.5908 1.739636,3.8862 3.314436,3.8862 0.457464,0 0.8001,-0.0254 1.028964,-0.0762 0.228336,-0.0508 0.469636,-0.2032 0.723636,-0.4572 0.254,-0.254 0.4318,-0.6858 0.533664,-1.2954 0.1016,-0.6096 0.1524,-1.4351 0.1524,-2.4765 0,-3.81 -1.105164,-5.715 -3.3147,-5.715 -0.889,0 -1.3335,0.2159 -1.3335,0.6477 0,0.1016 0.1905,0.4064 0.5715,0.9144 0.4064,0.4826 0.6096,0.9144 0.6096,1.2954 0,0.5588 -0.2159,1.0541 -0.6477,1.4859 -0.4064,0.4064 -0.9144,0.6096 -1.524,0.6096 -0.5588,0 -1.054101,-0.2159 -1.4859009,-0.6477 -0.4317996,-0.4572 -0.6474346,-0.9398 -0.6474346,-1.4478 0,-1.2446 0.5207,-2.2098 1.5618355,-2.8956 1.041665,-0.7112 2.3368,-1.0668 3.8862,-1.0668 1.803136,0 3.3274,0.6604 4.571736,1.9812 1.2446,1.2954 1.867164,2.9083 1.867164,4.8387 0,1.6764 -0.5207,3.0607 -1.5621,4.1529 -1.016,1.0668 -2.4003,1.6002 -4.1529,1.6002 -0.888735,0 -1.778,-0.1651 -2.667,-0.4953 l -1.2573,2.8194 1.2573,2.8575 c 0.940065,-0.3556 1.829065,-0.5334 2.667265,-0.5334 m -10.4013005,12.6873 h -3.7719 v -30.0228 h 3.7719 v 30.0228"
       inkscape:connector-curvature="0"
       id="path2990-0-0"
       style="fill:#000000;stroke-width:0.26458332" />
  </g>
</svg>
