<?xml version="1.0" encoding="utf-8"?>
<!-- Generator: Adobe Illustrator 13.0.0, SVG Export Plug-In . SVG Version: 6.00 Build 14948)  -->
<!DOCTYPE svg PUBLIC "-//W3C//DTD SVG 1.1 Basic//EN" "http://www.w3.org/Graphics/SVG/1.1/DTD/svg11-basic.dtd">
<svg version="1.1" baseProfile="basic"
	 id="svg8765" inkscape:version="0.48.3.1 r9886" sodipodi:docname="note05.svg" xmlns:sodipodi="http://sodipodi.sourceforge.net/DTD/sodipodi-0.dtd" xmlns:dc="http://purl.org/dc/elements/1.1/" xmlns:cc="http://creativecommons.org/ns#" xmlns:svg="http://www.w3.org/2000/svg" xmlns:rdf="http://www.w3.org/1999/02/22-rdf-syntax-ns#" xmlns:inkscape="http://www.inkscape.org/namespaces/inkscape"
	 xmlns="http://www.w3.org/2000/svg" xmlns:xlink="http://www.w3.org/1999/xlink" x="0px" y="0px" width="360px" height="360px"
	 viewBox="0 0 360 360" xml:space="preserve">
<sodipodi:namedview  inkscape:window-maximized="0" inkscape:pageshadow="2" inkscape:window-height="480" inkscape:window-y="24" inkscape:window-x="65" inkscape:current-layer="svg8765" inkscape:pageopacity="0" inkscape:window-width="640" id="namedview2992" borderopacity="1" gridtolerance="10" objecttolerance="10" inkscape:cy="180" inkscape:cx="180" pagecolor="#ffffff" showgrid="false" inkscape:zoom="0.65555556" guidetolerance="10" bordercolor="#666666">
	</sodipodi:namedview>
<path id="path3537-7" inkscape:connector-curvature="0" fill="#4D4D4D" d="M247.49,264.388H188v-3.456h59.494v3.456"/>
<path id="path3016-2-0-41" inkscape:connector-curvature="0" fill="#4D4D4D" d="M247.49,291.748H188v-3.456h59.494v3.456"/>
<path id="path3002-1" inkscape:connector-curvature="0" d="M217.24,275.617c6.621,0,12.237,1.297,16.848,3.889
	c4.605,2.496,6.912,6.096,6.912,10.801c0,4.512-2.256,8.016-6.771,10.512c-4.512,2.4-9.936,3.602-16.271,3.602
	c-6.624,0-12.192-1.248-16.704-3.744s-6.77-6.189-6.77-11.088c0-3.456,1.394-6.288,4.178-8.496c2.88-2.208,5.901-3.646,9.069-4.318
	c3.17-0.771,6.342-1.15,9.5-1.15 M209.465,285.841c0,4.032,0.912,7.584,2.736,10.655c1.821,3.072,4.176,4.607,7.056,4.607
	c4.416,0,6.624-2.398,6.624-7.199c0-3.84-0.912-7.248-2.736-10.226c-1.728-3.071-4.128-4.606-7.2-4.606
	c-4.318,0-6.479,2.26-6.479,6.771"/>
</svg>
