<?xml version="1.0" encoding="utf-8"?>
<!-- Generator: Adobe Illustrator 13.0.0, SVG Export Plug-In . SVG Version: 6.00 Build 14948)  -->
<!DOCTYPE svg PUBLIC "-//W3C//DTD SVG 1.1 Basic//EN" "http://www.w3.org/Graphics/SVG/1.1/DTD/svg11-basic.dtd">
<svg version="1.1" baseProfile="basic"
	 id="svg8765" xmlns:dc="http://purl.org/dc/elements/1.1/" xmlns:cc="http://creativecommons.org/ns#" xmlns:svg="http://www.w3.org/2000/svg" xmlns:rdf="http://www.w3.org/1999/02/22-rdf-syntax-ns#" xmlns:inkscape="http://www.inkscape.org/namespaces/inkscape"
	 xmlns="http://www.w3.org/2000/svg" xmlns:xlink="http://www.w3.org/1999/xlink" x="0px" y="0px" width="360px" height="360px"
	 viewBox="0 0 360 360" xml:space="preserve">
<path id="path3537-7" inkscape:connector-curvature="0" fill="#4D4D4D" d="M247.494,264.385H188v-3.457h59.494V264.385"/>
<path id="path3531-1" inkscape:connector-curvature="0" fill="#4D4D4D" d="M247.494,319.393H188v-3.457h59.494V319.393"/>
<path id="path3016-2-0-41" inkscape:connector-curvature="0" fill="#4D4D4D" d="M247.494,291.744H188v-3.456h59.494V291.744"/>
<path id="path3002-7" inkscape:connector-curvature="0" d="M217.243,316.943c6.624,0,12.239,1.297,16.848,3.889
	c4.607,2.496,6.912,6.096,6.912,10.8c0,4.513-2.256,8.017-6.769,10.513c-4.512,2.399-9.936,3.6-16.271,3.6
	c-6.624,0-12.192-1.248-16.704-3.744s-6.768-6.191-6.768-11.088c0-3.456,1.392-6.288,4.176-8.496c2.88-2.208,5.903-3.648,9.071-4.32
	C210.906,317.328,214.075,316.943,217.243,316.943 M209.467,327.168c0,4.032,0.912,7.584,2.736,10.656
	c1.823,3.072,4.176,4.607,7.056,4.607c4.416,0,6.624-2.399,6.624-7.199c0-3.84-0.912-7.248-2.736-10.225
	c-1.728-3.072-4.128-4.607-7.2-4.607C211.627,320.4,209.467,322.656,209.467,327.168"/>
</svg>
