<?xml version="1.0" encoding="UTF-8" standalone="no"?>
<!-- Created with Inkscape (http://www.inkscape.org/) -->

<svg
   xmlns:dc="http://purl.org/dc/elements/1.1/"
   xmlns:cc="http://creativecommons.org/ns#"
   xmlns:rdf="http://www.w3.org/1999/02/22-rdf-syntax-ns#"
   xmlns:svg="http://www.w3.org/2000/svg"
   xmlns="http://www.w3.org/2000/svg"
   xmlns:sodipodi="http://sodipodi.sourceforge.net/DTD/sodipodi-0.dtd"
   xmlns:inkscape="http://www.inkscape.org/namespaces/inkscape"
   version="1.0"
   width="610"
   height="610"
   id="svg2"
   inkscape:version="0.48.3.1 r9886"
   sodipodi:docname="sire.svg">
  <metadata
     id="metadata3046">
    <rdf:RDF>
      <cc:Work
         rdf:about="">
        <dc:format>image/svg+xml</dc:format>
        <dc:type
           rdf:resource="http://purl.org/dc/dcmitype/StillImage" />
        <dc:title />
      </cc:Work>
    </rdf:RDF>
  </metadata>
  <sodipodi:namedview
     pagecolor="#ffffff"
     bordercolor="#666666"
     borderopacity="1"
     objecttolerance="10"
     gridtolerance="10"
     guidetolerance="10"
     inkscape:pageopacity="0"
     inkscape:pageshadow="2"
     inkscape:window-width="1615"
     inkscape:window-height="1026"
     id="namedview3044"
     showgrid="false"
     inkscape:zoom="1.1125147"
     inkscape:cx="131.85575"
     inkscape:cy="281.11931"
     inkscape:window-x="65"
     inkscape:window-y="24"
     inkscape:window-maximized="1"
     inkscape:current-layer="svg2" />
  <defs
     id="defs4" />
  <rect
     style="fill:#ffffff;fill-opacity:0.90867579;stroke:none"
     id="rect2982"
     width="610"
     height="610"
     x="0"
     y="-3.9546491e-14" />
  <path
     inkscape:connector-curvature="0"
     style="fill:#000000"
     d="m 14.04523,368.48193 0,-236.51807 194.14835,0 2.04453,-29.82907 c 2.32196,-33.876631 13.14729,-61.699941 32.64663,-83.908461 15.02632,-17.11403 23.59798,-17.55268997 33.33276,-1.70581 15.55202,25.31654 24.0648,59.09451 22.2346,88.224991 l -1.71006,27.21835 149.60638,0 c 130.4806,0 149.60635,0.71992 149.60635,5.63138 0,4.91263 -19.33363,5.63138 -151.47717,5.63138 l -151.47714,0 -7.14013,15.85711 c -3.92706,8.7214 -13.51471,23.92614 -21.30587,33.78829 l -14.16576,17.9312 172.78305,0 c 151.08207,0 172.78302,0.70728 172.78302,5.63138 0,4.58494 -6.22501,5.63138 -33.49952,5.63138 l -33.49948,0 10.97395,10.97398 c 13.98663,13.9866 14.94805,32.78906 2.28495,44.68543 -11.45033,10.75703 -23.28231,10.32117 -34.8887,-1.28521 -6.95153,-6.95156 -8.76912,-11.6637 -6.87836,-17.83272 3.7333,-12.18097 9.12036,-17.7702 17.12747,-17.7702 10.99764,0 8.27798,-9.84271 -4.14105,-14.98684 -12.4995,-5.17745 -28.5697,-2.52186 -38.41264,6.34766 -6.84675,6.1696 -12.10781,20.47296 -15.95093,43.36604 l -2.36338,14.07845 69.62386,0 c 59.385,0 69.62383,0.82815 69.62383,5.63139 0,4.80169 -10.18023,5.63138 -69.09647,5.63138 l -69.0965,0 1.95987,15.95558 c 2.49076,20.27757 11.94702,37.19896 24.06163,43.0568 20.25112,9.79215 49.64611,-8.24494 54.71143,-33.57151 1.14662,-5.73312 4.2898,-10.42385 6.98479,-10.42385 3.70226,0 4.07817,2.86575 1.53782,11.72339 -5.32308,18.56057 -13.17015,27.94009 -30.58817,36.56181 l -16.20791,8.02269 47.86676,0.003 c 39.86339,0.002 47.86675,0.93661 47.86675,5.58693 0,4.81979 -18.34806,5.7189 -134.07511,6.56995 l -134.07508,0.98598 -3.75925,13.11121 c -2.06759,7.21114 -12.36249,21.99352 -22.87754,32.84973 l -19.11828,19.73853 156.95262,0 c 137.01064,0 156.95264,0.71552 156.95264,5.63138 0,4.91954 -20.68156,5.63138 -163.60841,5.63138 l -163.60838,0 2.05338,10.3242 c 6.37941,32.07508 9.24426,68.64618 6.2071,79.23618 -11.06823,38.59262 -53.38488,56.20675 -92.4297,38.47349 -31.92097,-14.4978 -42.03658,-47.49714 -21.89672,-71.43198 19.65232,-23.35548 57.85722,-9.16868 57.85722,21.48436 0,9.9222 -13.90199,26.79127 -25.83424,31.34795 -9.5238,3.63698 -9.60333,3.92166 -2.54369,9.10527 9.48838,6.96696 37.10468,6.8552 50.75841,-0.20543 19.28384,-9.97205 26.42484,-22.98145 26.42484,-48.14054 0,-12.45764 -1.86285,-33.34748 -4.13965,-46.42189 l -4.13965,-23.77161 -235.747285,0 0,71.33085 c 0,60.90232 -0.8233,71.33081 -5.631382,71.33081 -4.946081,0 -5.631383,-28.78263 -5.631383,-236.51807 z m 150.71621,67.34488 c -14.11339,-9.42453 -27.42353,-22.32979 -34.84838,-33.7883 l -12.01323,-18.53956 -92.591835,0 0,67.57659 162.288585,0 z m 91.98201,-0.70685 c -1.1902,-6.71073 -3.28528,-21.07076 -4.65574,-31.91117 l -2.49173,-19.70984 -25.92822,0 c -25.67619,0 -25.88587,0.0821 -21.57272,8.44707 2.39552,4.64589 7.81769,12.24826 12.04927,16.89415 15.06385,16.53873 -2.14786,8.72132 -18.59809,-8.44707 -15.35468,-16.02504 -9.94362,-17.84754 -36.899,-16.89415 -11.38425,0.40265 -21.98276,-0.15305 -21.98276,1.60199 0,6.06143 23.16559,34.97988 34.47046,43.02965 19.73037,14.04924 35.50176,18.8925 62.01348,19.04376 l 25.75904,0.14694 z m 39.0229,-15.19929 c 4.03065,-6.61049 7.33477,-17.50966 7.34249,-24.22039 l 0.014,-12.20133 -22.52553,0 c -13.32898,0 -22.52553,1.62071 -22.52553,3.96964 0,2.18332 1.92412,15.62063 4.27582,29.86074 l 4.27583,25.89111 10.90722,-5.64036 c 5.99897,-3.10218 14.20502,-11.04892 18.23567,-17.65941 z m -185.72912,-88.7497 3.49576,-30.26057 -88.224995,-0.005 0,71.33084 88.224995,4.2e-4 -3.49576,-24.54021 z m 68.70642,15.96954 c 1.33473,-16.09504 5.64405,-19.50822 15.05289,-31.21626 l 12.06952,-15.01891 -26.62941,0 -26.62941,0 -9.17625,19.70984 c -5.16033,11.08397 -9.1923,26.69268 -9.21292,35.66542 l -0.0367,15.95559 22.06064,0 23.64962,-0.3178 -1.78359,-15.56178 z m 66.03057,11.01722 c -4.53149,-26.86092 -4.59206,-26.93981 -17.83066,-23.22353 -13.96804,3.92103 -28.93983,19.44277 -28.93983,30.00281 0,6.48593 2.73776,7.29917 24.57277,7.29917 l 24.57278,0 z m 58.33462,11.26276 c -0.0425,-8.53436 -16.92705,-28.4054 -28.10451,-33.07564 -24.30082,-10.15354 -28.12162,-5.9757 -22.09462,24.15929 2.33353,11.66762 2.47781,11.73205 26.27979,11.73205 13.16335,0 23.92706,-1.26707 23.91934,-2.8157 z m 158.14825,-5.3271 C 443.87324,355.48864 425.658,331.6371 421.29297,311.76324 l -2.38478,-10.8579 -60.15871,0 -60.15869,0 11.44688,13.03727 c 11.3183,12.89083 19.30345,33.46729 19.34405,49.8465 l 0.0209,8.44707 74.14653,-0.003 74.14654,-0.003 -16.43864,-8.13686 z m -334.25443,-90.4064 c 4.39499,-8.77557 14.66638,-23.98031 22.8253,-33.7883 l 14.83442,-17.83271 -139.354385,0 0,67.57659 93.703775,0 z m 102.9986,-5.3017 c -1.46076,-11.69151 -3.86511,-24.52603 -5.34301,-28.52117 -2.54733,-6.88608 -3.35922,-6.72216 -15.60937,3.15167 -19.80363,15.96205 -44.83345,40.33351 -44.83345,43.65419 0,1.63493 15.39939,2.97259 34.22088,2.97259 l 34.22087,0 z m 189.52447,16.56446 c 0.0589,-13.2004 8.89762,-33.14555 20.90504,-47.17353 l 13.44741,-15.71024 -109.28379,0 c -83.96914,0 -109.69856,1.08705 -111.07445,4.69282 -0.98488,2.58105 1.94329,24.13256 4.56497,38.57021 5.89427,32.45985 -0.89637,23.27401 103.51908,23.86938 60.04465,0.34237 77.90559,-0.63149 77.92174,-4.24864 z M 195.51049,197.1611 c 18.08304,-14.08837 21.11669,-23.2004 15.14401,-45.4874 l -2.26373,-8.44708 -183.082775,0 0,67.5766 152.692245,0 z m 47.5443,-40.79458 12.73569,-13.1399 -17.63061,0 -17.63061,0 0,13.1399 c 0,8.29842 1.80356,13.13989 4.89492,13.13989 2.69221,0 10.62598,-5.91295 17.63061,-13.13989 z m 33.38001,-42.78823 c 9.90972,-17.998501 11.92829,-45.465251 4.03984,-54.970251 -6.81222,-8.20822 -23.74964,-6.65295 -32.83199,3.01477 -9.84209,10.47642 -18.92257,31.68662 -23.07006,53.887041 l -3.13648,16.78876 22.95468,-1.10594 c 22.87242,-1.10197 22.98727,-1.16511 32.04401,-17.61438 z"
     id="path1882"
     sodipodi:nodetypes="sccsssscssscsscssscsssssssscssscssssssccsscsscssscssssssssssccsssssccccssscsssssssscscscssscsccccccccccscccsscccccsssscsssssscscccsscccccssccccsssssscssscsssssssccccsscccssssssscss" />
</svg>
