<?xml version="1.0" encoding="utf-8"?>
<!-- Generator: Adobe Illustrator 13.0.0, SVG Export Plug-In . SVG Version: 6.00 Build 14948)  -->
<!DOCTYPE svg PUBLIC "-//W3C//DTD SVG 1.1 Basic//EN" "http://www.w3.org/Graphics/SVG/1.1/DTD/svg11-basic.dtd">
<svg version="1.1" baseProfile="basic"
	 id="svg8765" xmlns:dc="http://purl.org/dc/elements/1.1/" xmlns:cc="http://creativecommons.org/ns#" xmlns:svg="http://www.w3.org/2000/svg" xmlns:rdf="http://www.w3.org/1999/02/22-rdf-syntax-ns#" xmlns:inkscape="http://www.inkscape.org/namespaces/inkscape"
	 xmlns="http://www.w3.org/2000/svg" xmlns:xlink="http://www.w3.org/1999/xlink" x="0px" y="0px" width="360px" height="360px"
	 viewBox="0 0 360 360" xml:space="preserve">
<path id="path2990-0-0" inkscape:connector-curvature="0" d="M98.568,161.289c6.528,0,11.761,2.016,15.696,6.048
	c3.937,4.032,5.904,9.36,5.904,15.983c0,7.201-2.353,13.297-7.057,18.289c-4.703,4.896-10.464,7.344-17.279,7.344
	c-5.856,0-10.752-1.296-14.688-3.889c-3.936-2.688-5.903-6.383-5.903-11.088c0-1.92,0.815-3.695,2.447-5.328
	c1.632-1.728,3.504-2.592,5.616-2.592c2.304,0,4.224,0.816,5.76,2.448c1.632,1.536,2.448,3.36,2.448,5.472
	c0,1.44-0.768,3.121-2.304,5.041c-1.44,1.824-2.16,2.879-2.16,3.168c0,1.728,1.68,2.592,5.04,2.592
	c8.352,0,12.528-7.152,12.528-21.457c0-3.839-0.192-6.911-0.576-9.215c-0.385-2.4-1.057-4.08-2.017-5.04s-1.872-1.536-2.735-1.728
	c-0.864-0.288-2.16-0.432-3.889-0.432c-2.783,0-5.136,1.104-7.056,3.313c-1.824,2.208-3.648,6.048-5.472,11.519
	c-2.305-12.863-6.576-21.983-12.816-27.359v54.864h-5.472V95.769h5.472v55.008c6.24-5.376,10.512-14.448,12.816-27.216
	c2.399,9.792,6.575,14.688,12.527,14.688c1.729,0,3.024-0.096,3.889-0.288c0.863-0.192,1.775-0.768,2.735-1.728
	c0.96-0.96,1.632-2.592,2.017-4.896c0.384-2.304,0.576-5.424,0.576-9.36c0-14.4-4.177-21.6-12.528-21.6
	c-3.36,0-5.04,0.816-5.04,2.448c0,0.384,0.72,1.536,2.16,3.456c1.536,1.824,2.304,3.456,2.304,4.896
	c0,2.112-0.816,3.984-2.448,5.616c-1.536,1.536-3.456,2.304-5.76,2.304c-2.112,0-3.984-0.816-5.616-2.448
	c-1.632-1.728-2.447-3.552-2.447-5.472c0-4.704,1.968-8.352,5.903-10.944c3.937-2.688,8.832-4.032,14.688-4.032
	c6.815,0,12.576,2.496,17.279,7.488c4.704,4.896,7.057,10.992,7.057,18.288c0,6.336-1.968,11.568-5.904,15.696
	c-3.84,4.032-9.072,6.048-15.696,6.048c-3.359,0-6.72-0.624-10.08-1.872l-4.752,10.656l4.752,10.8
	C92.04,161.961,95.4,161.289,98.568,161.289 M59.256,209.241H45V95.769h14.256V209.241"/>
</svg>
